<?xml version="1.0" encoding="UTF-8" standalone="no"?>
<svg
   xmlns:dc="http://purl.org/dc/elements/1.1/"
   xmlns:cc="http://creativecommons.org/ns#"
   xmlns:rdf="http://www.w3.org/1999/02/22-rdf-syntax-ns#"
   xmlns:svg="http://www.w3.org/2000/svg"
   xmlns="http://www.w3.org/2000/svg"
   xmlns:sodipodi="http://sodipodi.sourceforge.net/DTD/sodipodi-0.dtd"
   xmlns:inkscape="http://www.inkscape.org/namespaces/inkscape"
   id="svg3430"
   width="711.20123"
   height="383.5975"
   viewBox="0 0 711.201 383.598"
   version="1.1"
   inkscape:version="0.92.5 (2060ec1f9f, 2020-04-08)"
   sodipodi:docname="dyd-logo.svg">
  <metadata
     id="metadata3538">
    <rdf:RDF>
      <cc:Work
         rdf:about="">
        <dc:format>image/svg+xml</dc:format>
        <dc:type
           rdf:resource="http://purl.org/dc/dcmitype/StillImage" />
      </cc:Work>
    </rdf:RDF>
  </metadata>
  <sodipodi:namedview
     pagecolor="#ffffff"
     bordercolor="#666666"
     borderopacity="1"
     objecttolerance="10"
     gridtolerance="10"
     guidetolerance="10"
     inkscape:pageopacity="0"
     inkscape:pageshadow="2"
     inkscape:window-width="3840"
     inkscape:window-height="2054"
     id="namedview3536"
     showgrid="false"
     inkscape:zoom="1.594503"
     inkscape:cx="381.31209"
     inkscape:cy="165.78454"
     inkscape:window-x="0"
     inkscape:window-y="37"
     inkscape:window-maximized="1"
     inkscape:current-layer="svg3430" />
  <defs
     id="defs3434">
    <clipPath
       id="clipPath3444">
      <path
         id="path3446"
         d="M11.52 162C11.52 81.677 135.307 16.56 288 16.56S564.48 81.678 564.48 162 440.693 307.44 288 307.44 11.52 242.32 11.52 162" />
    </clipPath>
    <radialGradient
       id="radialGradient3452"
       cx="0"
       cy="0"
       r="1"
       fx="0"
       fy="0"
       gradientTransform="matrix(363.06,0,0,-363.06,177.52,256.31)"
       gradientUnits="userSpaceOnUse"
       spreadMethod="pad">
      <stop
         id="stop3454"
         offset="0"
         stop-color="#aeb2d5" />
      <stop
         id="stop3456"
         offset="0.3"
         stop-color="#aeb2d5" />
      <stop
         id="stop3458"
         offset="0.75"
         stop-color="#484c89" />
      <stop
         id="stop3460"
         offset="1"
         stop-color="#484c89" />
    </radialGradient>
    <clipPath
       id="clipPath3468">
      <path
         id="path3470"
         d="M0 324h576V0H0v324z" />
    </clipPath>
    <clipPath
       id="clipPath3480">
      <path
         id="path3482"
         d="M0 324h576V0H0v324z" />
    </clipPath>
    <filter
       style="color-interpolation-filters:sRGB;"
       inkscape:label="Colorize"
       id="filter378">
      <feComposite
         in2="SourceGraphic"
         operator="arithmetic"
         k1="0.4"
         k2="7"
         result="composite1"
         id="feComposite364" />
      <feColorMatrix
         in="composite1"
         values="1"
         type="saturate"
         result="colormatrix1"
         id="feColorMatrix366" />
      <feFlood
         flood-opacity="1"
         flood-color="rgb(255,0,32)"
         result="flood1"
         id="feFlood368" />
      <feBlend
         in="flood1"
         in2="colormatrix1"
         mode="multiply"
         result="blend1"
         id="feBlend370" />
      <feBlend
         in2="blend1"
         mode="screen"
         result="blend2"
         id="feBlend372" />
      <feColorMatrix
         in="blend2"
         values="1"
         type="saturate"
         result="colormatrix2"
         id="feColorMatrix374" />
      <feComposite
         in="colormatrix2"
         in2="SourceGraphic"
         operator="in"
         k2="1"
         result="fbSourceGraphic"
         id="feComposite376" />
      <feColorMatrix
         result="fbSourceGraphicAlpha"
         in="fbSourceGraphic"
         values="0 0 0 -1 0 0 0 0 -1 0 0 0 0 -1 0 0 0 0 1 0"
         id="feColorMatrix380" />
      <feComposite
         in2="fbSourceGraphic"
         id="feComposite382"
         operator="arithmetic"
         k1="0.4"
         k2="7"
         result="composite1"
         in="fbSourceGraphic" />
      <feColorMatrix
         id="feColorMatrix384"
         in="composite1"
         values="1"
         type="saturate"
         result="colormatrix1" />
      <feFlood
         id="feFlood386"
         flood-opacity="1"
         flood-color="rgb(255,0,32)"
         result="flood1" />
      <feBlend
         in2="colormatrix1"
         id="feBlend388"
         in="flood1"
         mode="multiply"
         result="blend1" />
      <feBlend
         in2="blend1"
         id="feBlend390"
         mode="screen"
         result="blend2" />
      <feColorMatrix
         id="feColorMatrix392"
         in="blend2"
         values="1"
         type="saturate"
         result="colormatrix2" />
      <feComposite
         in2="fbSourceGraphic"
         id="feComposite394"
         in="colormatrix2"
         operator="in"
         k2="1"
         result="composite2" />
    </filter>
  </defs>
  <g
     id="g3438"
     transform="matrix(-1.25,0,0,1.25,715.6,-10.700013)"
     style="filter:url(#filter378)">
    <g
       id="g3440">
      <g
         id="g3442"
         clip-path="url(#clipPath3444)">
        <g
           id="g3448">
          <g
             id="g3450">
            <path
               id="path3462"
               d="M 11.52,162 C 11.52,81.677 135.307,16.56 288,16.56 440.693,16.56 564.48,81.678 564.48,162 564.48,242.322 440.693,307.44 288,307.44 135.307,307.44 11.52,242.32 11.52,162"
               style="fill:url(#radialGradient3452)"
               inkscape:connector-curvature="0" />
          </g>
        </g>
      </g>
    </g>
    <g
       id="g3464">
      <g
         id="g3466"
         clip-path="url(#clipPath3468)">
        <g
           id="g3472"
           transform="translate(288,27.36)">
          <path
             id="path3474"
             d="M 0,0 C 146.73,0 265.68,60.28 265.68,134.64 265.68,209 146.73,269.283 0,269.283 c -146.73,0 -265.68,-60.282 -265.68,-134.64 C -265.68,60.28 -146.73,0 0,0"
             inkscape:connector-curvature="0"
             style="fill:#777bb3" />
        </g>
      </g>
    </g>
    <g
       id="g3476">
      <g
         id="g3478"
         clip-path="url(#clipPath3480)">
        <g
           id="g3484"
           transform="translate(161.73,145.31)">
          <path
             id="path3486"
             d="m 0,0 c 12.065,0 21.072,2.225 26.77,6.61 5.64,4.342 9.533,11.863 11.574,22.354 1.903,9.806 1.178,16.653 -2.154,20.348 C 32.783,53.086 25.417,55 14.297,55 L -4.983,55 -15.673,0 0,0 Z m -63.063,-67.75 c -0.895,0 -1.745,0.4 -2.314,1.092 -0.57,0.69 -0.8,1.6 -0.63,2.48 l 28.328,145.75 c 0.28,1.41 1.51,2.428 2.95,2.428 l 61.05,0 c 19.19,0 33.47,-5.21 42.45,-15.487 9.03,-10.33 11.81,-24.772 8.288,-42.92 -1.435,-7.395 -3.905,-14.262 -7.34,-20.41 -3.44,-6.155 -7.984,-11.85 -13.51,-16.93 C 49.58,-17.94 42.098,-22.43 33.96,-25.07 25.96,-27.68 15.682,-29 3.414,-29 l -24.722,0 -7.06,-36.322 c -0.274,-1.41 -1.508,-2.428 -2.944,-2.428 l -31.75,0 z"
             inkscape:connector-curvature="0" />
        </g>
        <g
           id="g3488"
           transform="translate(159.22,197.31)">
          <path
             id="path3490"
             d="m 0,0 16.808,0 c 13.42,0 18.083,-2.945 19.667,-4.7 2.628,-2.914 3.124,-9.058 1.435,-17.767 C 36.012,-32.217 32.494,-39.13 27.452,-43.012 22.29,-46.986 13.898,-49 2.512,-49 L -9.524,-49 0,0 Z m 28.83,35 -61.054,0 c -2.872,0 -5.34,-2.036 -5.89,-4.855 l -28.327,-145.75 c -0.35,-1.76 0.12,-3.58 1.25,-4.962 1.14,-1.383 2.84,-2.183 4.63,-2.183 l 31.75,0 c 2.87,0 5.34,2.036 5.89,4.855 L -16.33,-84 5.92,-84 c 12.58,0 23.177,1.372 31.48,4.077 8.54,2.775 16.4,7.48 23.356,13.984 5.75,5.3 10.49,11.24 14.08,17.66 3.59,6.42 6.17,13.6 7.667,21.3 3.715,19.11 0.697,34.41 -8.97,45.47 C 63.967,29.45 48.925,35 28.833,35 M -16.8,-55 2.51,-55 c 12.802,0 22.337,2.41 28.602,7.234 6.266,4.824 10.492,12.876 12.688,24.156 2.1,10.833 1.144,18.477 -2.87,22.93 C 36.91,3.773 28.87,6 16.807,6 L -4.946,6 -16.802,-55 M 28.83,29 c 18.368,0 31.767,-4.82 40.19,-14.46 8.42,-9.642 10.956,-23.1 7.596,-40.376 -1.383,-7.117 -3.722,-13.624 -7.015,-19.52 -3.29,-5.898 -7.6,-11.292 -12.92,-16.184 -6.34,-5.93 -13.38,-10.16 -21.13,-12.673 C 27.8,-76.743 17.93,-78 5.93,-78 l -27.2,0 -7.532,-38.75 -31.75,0 L -32.224,29 28.83,29"
             inkscape:connector-curvature="0"
             style="fill:#ffffff" />
        </g>
        <g
           id="g3492"
           transform="translate(311.58,116.31)">
          <path
             id="path3494"
             d="m 0,0 c -0.896,0 -1.745,0.4 -2.314,1.092 -0.57,0.69 -0.802,1.6 -0.63,2.48 l 12.53,64.49 C 10.778,74.194 10.484,78.596 8.759,80.456 7.7,81.593 4.53,83.5 -4.85,83.5 l -22.7,0 L -43.305,2.428 C -43.58,1.018 -44.815,0 -46.25,0 l -31.5,0 c -0.896,0 -1.745,0.4 -2.315,1.092 -0.57,0.69 -0.8,1.6 -0.63,2.48 l 28.328,145.75 c 0.274,1.41 1.51,2.428 2.945,2.428 l 31.5,0 c 0.896,0 1.745,-0.4 2.315,-1.09 0.57,-0.693 0.8,-1.602 0.63,-2.482 L -21.813,113 2.61,113 c 18.604,0 31.22,-3.28 38.568,-10.028 7.49,-6.884 9.827,-17.89 6.947,-32.72 L 34.945,2.43 C 34.67,1.018 33.437,0 32,0 L 0,0 Z"
             inkscape:connector-curvature="0" />
        </g>
        <g
           id="g3496"
           transform="translate(293.66,271.06)">
          <path
             id="path3498"
             d="m 0,0 -31.5,0 c -2.873,0 -5.342,-2.036 -5.89,-4.855 l -28.328,-145.75 c -0.342,-1.76 0.12,-3.58 1.26,-4.962 1.14,-1.383 2.838,-2.183 4.63,-2.183 l 31.5,0 c 2.872,0 5.342,2.036 5.89,4.855 l 15.283,78.645 20.23,0 c 9.362,0 11.327,-2 11.406,-2.086 0.57,-0.61 1.32,-3.44 0.09,-9.78 l -12.53,-64.49 c -0.34,-1.76 0.12,-3.578 1.26,-4.96 1.14,-1.384 2.84,-2.184 4.63,-2.184 l 32,0 c 2.87,0 5.34,2.036 5.89,4.855 L 68.99,-85.07 c 3.094,15.92 0.448,27.864 -7.86,35.5 -7.928,7.28 -21.208,10.82 -40.6,10.82 l -20.782,0 6.142,31.605 c 0.34,1.76 -0.12,3.58 -1.26,4.96 C 3.49,-0.8 1.792,0 0,0 m 0,-6 -7.53,-38.75 28.06,0 c 17.658,0 29.837,-3.082 36.54,-9.238 6.703,-6.16 8.71,-16.14 6.032,-29.938 l -13.18,-67.824 -32,0 12.53,64.488 c 1.427,7.336 0.903,12.34 -1.573,15.008 -2.48,2.668 -7.75,4.004 -15.81,4.004 l -25.18,0 -16.23,-83.5 -31.5,0 L -31.5,-6 0,-6"
             inkscape:connector-curvature="0"
             style="fill:#ffffff" />
        </g>
        <g
           id="g3500"
           transform="translate(409.55,145.31)">
          <path
             id="path3502"
             d="m 0,0 c 12.065,0 21.072,2.225 26.77,6.61 5.64,4.34 9.533,11.862 11.575,22.354 1.903,9.806 1.178,16.653 -2.155,20.348 C 32.783,53.086 25.417,55 14.297,55 L -4.983,55 -15.673,0 0,0 Z m -63.062,-67.75 c -0.895,0 -1.745,0.4 -2.314,1.092 -0.57,0.69 -0.802,1.6 -0.63,2.48 l 28.327,145.75 c 0.28,1.41 1.51,2.428 2.95,2.428 l 61.05,0 c 19.19,0 33.47,-5.21 42.45,-15.487 9.03,-10.33 11.81,-24.77 8.29,-42.92 -1.434,-7.395 -3.903,-14.262 -7.34,-20.41 -3.44,-6.155 -7.982,-11.85 -13.51,-16.93 C 49.58,-17.94 42.098,-22.43 33.96,-25.07 25.96,-27.68 15.682,-29 3.414,-29 l -24.724,0 -7.056,-36.322 c -0.275,-1.41 -1.51,-2.428 -2.946,-2.428 l -31.75,0 z"
             inkscape:connector-curvature="0" />
        </g>
        <g
           id="g3504"
           transform="translate(407.04,197.31)">
          <path
             id="path3506"
             d="m 0,0 16.808,0 c 13.42,0 18.083,-2.945 19.667,-4.7 2.63,-2.914 3.125,-9.058 1.435,-17.766 C 36.012,-32.216 32.493,-39.13 27.452,-43.012 22.29,-46.986 13.898,-49 2.512,-49 L -9.523,-49 0,0 Z m 28.83,35 -61.053,0 c -2.872,0 -5.34,-2.036 -5.89,-4.855 l -28.327,-145.75 c -0.342,-1.76 0.12,-3.58 1.26,-4.962 1.14,-1.383 2.837,-2.183 4.63,-2.183 l 31.75,0 c 2.87,0 5.34,2.036 5.89,4.855 l 6.585,33.895 22.25,0 c 12.58,0 23.173,1.372 31.478,4.077 8.54,2.775 16.4,7.48 23.356,13.986 5.75,5.29 10.48,11.23 14.07,17.655 C 78.42,-41.855 81,-34.688 82.5,-26.98 86.215,-7.875 83.197,7.423 73.53,18.487 63.967,29.444 48.922,35 28.832,35 M -16.8,-55 2.51,-55 c 12.802,0 22.337,2.41 28.602,7.234 6.268,4.824 10.492,12.876 12.688,24.156 2.102,10.833 1.145,18.477 -2.87,22.93 C 36.91,3.773 28.87,6 16.807,6 L -4.946,6 -16.8,-55 m 45.63,84 c 18.368,0 31.767,-4.82 40.19,-14.46 8.42,-9.642 10.956,-23.1 7.596,-40.376 -1.383,-7.117 -3.722,-13.624 -7.015,-19.52 -3.29,-5.898 -7.6,-11.292 -12.92,-16.184 -6.34,-5.93 -13.38,-10.16 -21.13,-12.673 C 27.8,-76.743 17.93,-78 5.93,-78 l -27.2,0 -7.53,-38.75 -31.75,0 L -32.224,29 28.83,29"
             inkscape:connector-curvature="0"
             style="fill:#ffffff" />
        </g>
      </g>
    </g>
  </g>
</svg>
